<svg xmlns="http://www.w3.org/2000/svg" viewBox="0 0 760 240" fill="none">
<path d="M42 166C110 60 212 42 306 78c52 20 87 17 127-8 56-36 125-33 176 5 34 25 58 62 77 110" stroke="url(#g)" stroke-width="5" stroke-linecap="round"/>
<path d="M204 79c-18 19-35 45-43 79 39-51 76-72 125-65" stroke="url(#g2)" stroke-width="3" stroke-linecap="round" opacity=".75"/>
<path d="M585 71l55-34-15 52 47 9-50 26" stroke="#22d3ee" stroke-width="4" stroke-linejoin="round" opacity=".75"/>
<circle cx="614" cy="76" r="5" fill="#7cff6b"/>
<defs><linearGradient id="g" x1="42" y1="120" x2="686" y2="120"><stop stop-color="#22d3ee"/><stop offset=".55" stop-color="#1478ff"/><stop offset="1" stop-color="#76ff5f"/></linearGradient><linearGradient id="g2" x1="160" y1="118" x2="286" y2="118"><stop stop-color="#22d3ee"/><stop offset="1" stop-color="#1478ff"/></linearGradient></defs>
</svg>